<svg width="150" height="150" viewBox="0 0 150 150" fill="none" xmlns="http://www.w3.org/2000/svg">
<path d="M63.9375 109.125L117 56.0625L108.375 47.625L63.9375 92.0625L41.4375 69.5625L33 78L63.9375 109.125ZM75 150C64.75 150 55.0625 148.031 45.9375 144.094C36.8125 140.156 28.8438 134.781 22.0312 127.969C15.2187 121.156 9.84375 113.188 5.90625 104.062C1.96875 94.9375 0 85.25 0 75C0 64.625 1.96875 54.875 5.90625 45.75C9.84375 36.625 15.2187 28.6875 22.0312 21.9375C28.8438 15.1875 36.8125 9.84375 45.9375 5.90625C55.0625 1.96875 64.75 0 75 0C85.375 0 95.125 1.96875 104.25 5.90625C113.375 9.84375 121.313 15.1875 128.063 21.9375C134.813 28.6875 140.156 36.625 144.094 45.75C148.031 54.875 150 64.625 150 75C150 85.25 148.031 94.9375 144.094 104.062C140.156 113.188 134.813 121.156 128.063 127.969C121.313 134.781 113.375 140.156 104.25 144.094C95.125 148.031 85.375 150 75 150ZM75 138.75C92.75 138.75 107.812 132.531 120.187 120.094C132.562 107.656 138.75 92.625 138.75 75C138.75 57.25 132.562 42.1875 120.187 29.8125C107.812 17.4375 92.75 11.25 75 11.25C57.375 11.25 42.3438 17.4375 29.9063 29.8125C17.4688 42.1875 11.25 57.25 11.25 75C11.25 92.625 17.4688 107.656 29.9063 120.094C42.3438 132.531 57.375 138.75 75 138.75Z" fill="#22C55E"/>
</svg>
