<svg width="150" height="150" viewBox="0 0 150 150" fill="none" xmlns="http://www.w3.org/2000/svg">
<path d="M140.833 150L86.0417 95.2083C81.875 98.8194 77.0139 101.632 71.4583 103.646C65.9028 105.66 60 106.667 53.75 106.667C38.75 106.667 26.0417 101.458 15.625 91.0417C5.20833 80.625 0 68.0556 0 53.3333C0 38.6111 5.20833 26.0417 15.625 15.625C26.0417 5.20833 38.6806 0 53.5417 0C68.2639 0 80.7986 5.20833 91.1458 15.625C101.493 26.0417 106.667 38.6111 106.667 53.3333C106.667 59.3056 105.694 65.0694 103.75 70.625C101.806 76.1806 98.8889 81.3889 95 86.25L150 140.833L140.833 150ZM53.5417 94.1667C64.7917 94.1667 74.375 90.1736 82.2917 82.1875C90.2083 74.2014 94.1667 64.5833 94.1667 53.3333C94.1667 42.0833 90.2083 32.4653 82.2917 24.4792C74.375 16.4931 64.7917 12.5 53.5417 12.5C42.1528 12.5 32.4653 16.4931 24.4792 24.4792C16.4931 32.4653 12.5 42.0833 12.5 53.3333C12.5 64.5833 16.4931 74.2014 24.4792 82.1875C32.4653 90.1736 42.1528 94.1667 53.5417 94.1667Z" fill="#009ABF"/>
</svg>
