<svg width="150" height="130" viewBox="0 0 150 130" fill="none" xmlns="http://www.w3.org/2000/svg">
<path d="M0 129.545L75 0L150 129.545H0ZM17.7273 119.318H132.273L75 20.4545L17.7273 119.318ZM75.6818 109.602C77.1591 109.602 78.3807 109.119 79.3466 108.153C80.3125 107.187 80.7955 105.966 80.7955 104.489C80.7955 103.011 80.3125 101.79 79.3466 100.824C78.3807 99.858 77.1591 99.375 75.6818 99.375C74.2045 99.375 72.983 99.858 72.017 100.824C71.0511 101.79 70.5682 103.011 70.5682 104.489C70.5682 105.966 71.0511 107.187 72.017 108.153C72.983 109.119 74.2045 109.602 75.6818 109.602ZM70.5682 90.6818H80.7955V52.5H70.5682V90.6818Z" fill="#F59E0B"/>
</svg>
